<svg viewBox="0 0 611 221" fill="none" xmlns="http://www.w3.org/2000/svg">
<g id="G2X 1">
<path id="Vector" d="M112.88 0C134.2 0.93 156.24 6.16 173.33 19.59C189.737 32.4833 199.093 49.9133 201.4 71.88C201.407 71.9431 201.4 72.0069 201.38 72.0673C201.361 72.1278 201.328 72.1834 201.284 72.2307C201.241 72.2779 201.188 72.3156 201.128 72.3413C201.069 72.3671 201.005 72.3802 200.94 72.38H173.05C172.833 72.3796 172.623 72.3072 172.454 72.1746C172.285 72.042 172.167 71.8571 172.12 71.65C168.11 54.56 156.77 38.54 140.54 31.73C135.493 29.61 130.64 28.52 125.98 28.46C116.333 28.34 105.087 28.3267 92.24 28.42C64.54 28.61 44.09 52.26 35.79 76.45C23.38 112.6 31.07 155.27 61.62 179.89C67.56 184.677 74.71 188.257 83.07 190.63C86.5233 191.61 91.04 192.097 96.62 192.09C109.213 192.077 115.557 192.07 115.65 192.07C134.96 192.98 153.44 185.53 165.95 170.96C168.363 168.147 170.303 165.417 171.77 162.77C172.883 160.75 173.433 158.127 173.42 154.9C173.393 149.807 173.383 141.07 173.39 128.69C173.39 128.459 173.298 128.238 173.135 128.075C172.972 127.912 172.751 127.82 172.52 127.82H117.91C117.708 127.82 117.515 127.74 117.373 127.597C117.23 127.455 117.15 127.262 117.15 127.06V101.95C117.15 101.794 117.213 101.643 117.326 101.533C117.438 101.422 117.591 101.36 117.75 101.36H201.14C201.323 101.36 201.498 101.432 201.628 101.559C201.757 101.687 201.83 101.86 201.83 102.04V166.34C201.83 166.761 201.738 167.178 201.56 167.56C191.81 188.64 173.18 204.56 151.59 212.83C126.56 222.42 96.47 222.9 70.93 215.61C29.94 203.93 5.98 171.45 1.21 129.96C0.776667 126.16 0.373333 122.347 0 118.52V117.35C0.206667 116.857 0.206667 116.61 0 116.61V105.52C0.206667 105.007 0.206667 104.613 0 104.34V103.65C1.77 71.5 12.82 40.28 39.53 20.41C57.66 6.92 79.89 0.78 102.4 0H112.88Z" fill="white"/>
<path id="Vector_2" d="M315.88 0C329.94 0.64 343.11 3.19 355.54 9.96C371.71 18.77 380.77 34.64 383.17 52.61C385.543 70.37 382.207 86.53 373.16 101.09C368.113 109.203 361.217 116.83 352.47 123.97C346.403 128.923 320.223 149.563 273.93 185.89C273.839 185.965 273.766 186.06 273.716 186.167C273.666 186.274 273.64 186.391 273.64 186.51V188.5C273.64 188.654 273.701 188.801 273.81 188.91C273.919 189.019 274.066 189.08 274.22 189.08H387.6C387.801 189.081 388 189.125 388.183 189.209C388.365 189.293 388.528 189.415 388.659 189.567C388.79 189.718 388.886 189.896 388.942 190.089C388.997 190.281 389.01 190.482 388.98 190.68C387.127 203.153 380.783 211.17 369.95 214.73C367.377 215.577 364.02 215.987 359.88 215.96C352.467 215.913 309.59 215.903 231.25 215.93C231.086 215.93 230.928 215.865 230.812 215.748C230.695 215.632 230.63 215.474 230.63 215.31V186.63C230.63 186.2 230.729 185.776 230.917 185.389C231.106 185.003 231.381 184.664 231.72 184.4C236.733 180.52 268.963 155.357 328.41 108.91C338.98 100.65 348.58 89.17 352.59 76.22C358.31 57.8 350.88 35.06 330.66 29.34C327.073 28.32 322.513 27.9033 316.98 28.09C313.167 28.21 308.557 28.1967 303.15 28.05C297.143 27.8833 292.287 28.4233 288.58 29.67C271.37 35.44 261.52 50.61 260.82 68.43C260.815 68.5856 260.749 68.7332 260.637 68.8414C260.525 68.9496 260.376 69.0101 260.22 69.01H231.81C231.749 69.0101 231.689 68.9978 231.633 68.9739C231.577 68.9501 231.527 68.9151 231.485 68.8712C231.442 68.8273 231.41 68.7753 231.388 68.7184C231.367 68.6614 231.357 68.6008 231.36 68.54C231.8 57.9 234.02 48.0967 238.02 39.13C250.26 11.69 277.97 1.05 306.25 0H315.88Z" fill="white"/>
<path id="Vector_3" d="M412.9 4.61H445.57C445.901 4.61009 446.226 4.6935 446.516 4.85254C446.807 5.01158 447.052 5.24112 447.23 5.52C473.757 47.5133 490.52 73.9667 497.52 84.88C501.367 90.88 503.62 95.3233 504.28 98.21C505.393 103.057 505.347 108.037 504.14 113.15C503.453 116.063 501.177 120.477 497.31 126.39C496.99 126.877 478.51 156.6 441.87 215.56C441.808 215.661 441.723 215.744 441.621 215.802C441.519 215.86 441.405 215.89 441.29 215.89H408.97C408.906 215.89 408.844 215.872 408.789 215.839C408.735 215.806 408.69 215.759 408.659 215.702C408.629 215.645 408.614 215.581 408.615 215.515C408.617 215.45 408.636 215.386 408.67 215.33L477.02 105.78C477.113 105.631 477.161 105.459 477.16 105.284C477.158 105.108 477.106 104.937 477.01 104.79L412.62 5.12C412.587 5.06995 412.569 5.01201 412.567 4.95234C412.565 4.89267 412.579 4.83351 412.607 4.78117C412.636 4.72882 412.678 4.68526 412.73 4.65512C412.782 4.62497 412.84 4.60938 412.9 4.61Z" fill="white"/>
<path id="Vector_4" d="M605.64 4.62C605.7 4.61938 605.758 4.63497 605.81 4.66512C605.862 4.69526 605.904 4.73882 605.933 4.79117C605.961 4.84351 605.975 4.90267 605.973 4.96234C605.971 5.02201 605.953 5.07995 605.92 5.13L541.51 104.83C541.414 104.977 541.362 105.148 541.36 105.324C541.359 105.499 541.407 105.671 541.5 105.82L609.87 215.4C609.904 215.456 609.923 215.52 609.925 215.585C609.926 215.651 609.911 215.715 609.881 215.772C609.85 215.829 609.805 215.876 609.751 215.909C609.696 215.942 609.634 215.96 609.57 215.96H577.24C577.125 215.96 577.011 215.93 576.909 215.872C576.807 215.814 576.722 215.731 576.66 215.63C540.013 156.65 521.53 126.917 521.21 126.43C517.337 120.517 515.057 116.103 514.37 113.19C513.163 108.077 513.117 103.093 514.23 98.24C514.897 95.3533 517.153 90.91 521 84.91C528 73.9967 544.767 47.5367 571.3 5.53C571.478 5.25113 571.723 5.02158 572.014 4.86254C572.304 4.7035 572.629 4.62009 572.96 4.62H605.64Z" fill="white"/>
</g>
</svg>
