<svg width="25" height="24" viewBox="0 0 25 24" fill="none" xmlns="http://www.w3.org/2000/svg">
<g clip-path="url(#clip0_796_21644)">
<path d="M14.3274 2.52189C13.9214 1.84804 13.1922 1.43604 12.4054 1.43604C11.6187 1.43604 10.8895 1.84804 10.4834 2.52189L7.32175 7.93712C12.2367 10.3909 15.4826 15.2662 15.8506 20.7473H13.6307C13.2634 16.0492 10.4375 11.8963 6.20218 9.8303L3.27593 14.89C5.65388 15.9564 7.32527 18.1602 7.71095 20.7377H2.61284C2.49002 20.729 2.37984 20.659 2.31979 20.5515C2.25975 20.444 2.25792 20.3134 2.31493 20.2043L3.7276 17.8018C3.249 17.4025 2.702 17.0932 2.11312 16.8888L0.714868 19.2913C0.420834 19.7957 0.341219 20.3968 0.493832 20.9603C0.646445 21.5238 1.01855 22.0026 1.52691 22.2897C1.85851 22.4765 2.23225 22.5757 2.61284 22.578H9.59451C9.85824 19.3236 8.40006 16.1685 5.75051 14.2605L6.86047 12.3385C10.2054 14.6359 12.0874 18.5296 11.8096 22.578H17.7246C18.0049 16.4439 15.0015 10.6237 9.83957 7.29806L12.0835 3.45406C12.1876 3.27968 12.4128 3.22178 12.588 3.32432C12.8427 3.46367 22.3374 20.0313 22.5152 20.2235C22.5789 20.3378 22.5766 20.4775 22.5091 20.5897C22.4416 20.7018 22.3193 20.7693 22.1884 20.7665H19.9012C19.9301 21.3783 19.9301 21.9886 19.9012 22.5972H22.198C22.7871 22.601 23.3533 22.3691 23.7703 21.953C24.1873 21.5368 24.4205 20.9712 24.418 20.3821C24.4182 19.9969 24.3154 19.6186 24.12 19.2865L14.3274 2.52189Z" fill="#685FBB"/>
</g>
<defs>
<clipPath id="clip0_796_21644">
<rect width="24" height="24" fill="white" transform="translate(0.417969)"/>
</clipPath>
</defs>
</svg>
